<?xml version="1.0" encoding="iso-8859-1"?>
<!-- Generator: Adobe Illustrator 16.0.4, SVG Export Plug-In . SVG Version: 6.00 Build 0)  -->
<!DOCTYPE svg PUBLIC "-//W3C//DTD SVG 1.1//EN" "http://www.w3.org/Graphics/SVG/1.1/DTD/svg11.dtd">
<svg version="1.1" id="Capa_1" xmlns="http://www.w3.org/2000/svg" xmlns:xlink="http://www.w3.org/1999/xlink" x="0px" y="0px"
	 width="300px" height="300px" viewBox="0 0 300 300" style="enable-background:new 0 0 300 300;" xml:space="preserve">
<polygon points="114.898,112.366 128.469,98.233 88.997,57.444 89.053,54.387 92.084,54.457 131.448,95.132 144.554,81.486 
	107.046,42.592 75.512,42.666 75.573,71.757 "/>
<path d="M199.072,168.231c11.265,0.535,19.779-0.75,25.052-4.241l-38.294-39.707l-13.035,13.577l22.383,23.13l-3.088,2.992
	l-22.273-23.021l-13.559,14.12l37.263,38.482C197.152,188.281,198.911,179.68,199.072,168.231z"/>
<path d="M229.506,137.136c14.344,27.952,3.412,38.115-24.941,36.771c-0.425,29.402-11.361,40.07-37.578,23.73
	c10.184,30.168,39.961,26.674,51.078-9.779C246.197,181.865,265.113,153.298,229.506,137.136z"/>
<path d="M264.396,213.619l-6.555-6.773c-12.988-13.422-28.595-19.389-34.858-13.326c-6.264,6.061-0.812,21.854,12.176,35.275
	l6.555,6.773c12.987,13.422,28.595,19.389,34.858,13.327S277.385,227.04,264.396,213.619z"/>
<path d="M75.878,164.469c5.271,3.49,13.783,4.775,25.048,4.242c0.165,11.447,1.923,20.053,5.555,25.33L224.428,72.235l0.061-29.672
	l-30.809,0.021L75.878,164.469L75.878,164.469z M207.917,54.934l3.032-0.068l0.057,3.058L107.91,164.458l-3.088-2.989
	L207.917,54.934z"/>
<path d="M95.436,174.384c-28.354,1.345-39.285-8.817-24.941-36.77c-35.608,16.162-16.691,44.73,11.441,50.72
	c11.118,36.455,40.896,39.949,51.078,9.781C106.796,214.455,95.859,203.785,95.436,174.384z"/>
<path d="M42.158,207.324l-6.555,6.773c-12.988,13.422-18.439,29.215-12.175,35.277c6.264,6.061,21.87,0.094,34.858-13.327
	l6.555-6.773c12.988-13.421,18.439-29.216,12.175-35.276C70.752,187.937,55.146,193.902,42.158,207.324z"/>
</svg>
